<svg xmlns="http://www.w3.org/2000/svg" viewBox="-60 -60 1791 632" width="1791" height="632"><g><rect width="512" height="512" rx="112" fill="#FFFFFF"/><g transform="translate(109.17 406.00) scale(0.38314 -0.38314)"><path d="M354 531Q432 531 484.5 465.5Q537 400 537 267Q537 168 506.0 105.5Q475 43 423.0 14.5Q371 -14 310 -14Q267 -14 227.5 4.5Q188 23 164 63H181Q201 35 229.5 21.5Q258 8 287 8Q346 8 375.0 69.5Q404 131 404 258Q404 342 392.5 393.5Q381 445 359.0 468.5Q337 492 304 492Q265 492 232.5 459.0Q200 426 195 365L188 393Q204 459 248.5 495.0Q293 531 354 531ZM199 783V30Q178 29 156.0 22.5Q134 16 115.0 6.5Q96 -3 82 -16L66 -8Q71 6 72.0 20.0Q73 34 73 49V663Q73 708 58.5 729.5Q44 751 5 751V772Q37 769 67 769Q105 769 138.0 772.5Q171 776 199 783Z" fill="#1A1E2E"/></g><circle cx="364.92" cy="370.00" r="36.0" fill="#2B3EE5"/></g><g transform="translate(686.1 128.0) scale(0.3204)"><g transform="translate(-5 783) scale(1 -1)"><g transform="translate(0 0)"><path d="M354 531Q432 531 484.5 465.5Q537 400 537 267Q537 168 506.0 105.5Q475 43 423.0 14.5Q371 -14 310 -14Q267 -14 227.5 4.5Q188 23 164 63H181Q201 35 229.5 21.5Q258 8 287 8Q346 8 375.0 69.5Q404 131 404 258Q404 342 392.5 393.5Q381 445 359.0 468.5Q337 492 304 492Q265 492 232.5 459.0Q200 426 195 365L188 393Q204 459 248.5 495.0Q293 531 354 531ZM199 783V30Q178 29 156.0 22.5Q134 16 115.0 6.5Q96 -3 82 -16L66 -8Q71 6 72.0 20.0Q73 34 73 49V663Q73 708 58.5 729.5Q44 751 5 751V772Q37 769 67 769Q105 769 138.0 772.5Q171 776 199 783Z" fill="#FFFFFF"/></g><g transform="translate(578 0)"><path d="M280 531Q349 531 402.5 503.5Q456 476 487.5 416.0Q519 356 519 258Q519 160 487.5 100.0Q456 40 402.5 13.0Q349 -14 280 -14Q211 -14 157.0 13.0Q103 40 72.0 100.0Q41 160 41 258Q41 356 72.0 416.0Q103 476 157.0 503.5Q211 531 280 531ZM280 511Q233 511 203.5 451.5Q174 392 174 258Q174 124 203.5 65.0Q233 6 280 6Q326 6 356.0 65.0Q386 124 386 258Q386 392 356.0 451.5Q326 511 280 511Z" fill="#FFFFFF"/></g><g transform="translate(1137 0)"><path d="M280 531Q349 531 402.5 503.5Q456 476 487.5 416.0Q519 356 519 258Q519 160 487.5 100.0Q456 40 402.5 13.0Q349 -14 280 -14Q211 -14 157.0 13.0Q103 40 72.0 100.0Q41 160 41 258Q41 356 72.0 416.0Q103 476 157.0 503.5Q211 531 280 531ZM280 511Q233 511 203.5 451.5Q174 392 174 258Q174 124 203.5 65.0Q233 6 280 6Q326 6 356.0 65.0Q386 124 386 258Q386 392 356.0 451.5Q326 511 280 511Z" fill="#FFFFFF"/></g><g transform="translate(1696 0)"><path d="M213 783V93Q213 51 227.0 36.0Q241 21 275 21V0Q258 1 223.0 2.5Q188 4 152 4Q115 4 76.5 2.5Q38 1 19 0V21Q56 21 71.5 36.0Q87 51 87 93V663Q87 708 72.5 729.5Q58 751 19 751V772Q51 769 81 769Q119 769 152.0 772.5Q185 776 213 783ZM537 517V497Q507 491 479.0 474.5Q451 458 424 429L325 326L336 348L512 73Q526 53 538.5 39.5Q551 26 570 21V0Q557 1 529.0 2.5Q501 4 473 4Q439 4 403.5 2.5Q368 1 350 0V21Q370 21 377.5 30.5Q385 40 375 55L271 230Q257 252 244.0 258.5Q231 265 209 265V285Q234 287 250.5 294.0Q267 301 282 316L357 391Q390 424 390.5 447.0Q391 470 369.5 482.5Q348 495 314 497V517Q341 516 374.0 514.5Q407 513 430 513Q448 513 468.5 513.5Q489 514 507.5 515.0Q526 516 537 517Z" fill="#FFFFFF"/></g><g transform="translate(2270 0)"><path d="M150 772Q186 772 209.0 752.0Q232 732 232 699Q232 666 209.0 646.0Q186 626 150 626Q114 626 91.0 646.0Q68 666 68 699Q68 732 91.0 752.0Q114 772 150 772ZM220 528V93Q220 51 235.5 36.0Q251 21 288 21V0Q270 1 233.0 2.5Q196 4 158 4Q121 4 83.0 2.5Q45 1 26 0V21Q63 21 78.5 36.0Q94 51 94 93V407Q94 453 79.5 474.5Q65 496 26 496V517Q58 514 88 514Q125 514 158.5 517.5Q192 521 220 528Z" fill="#FFFFFF"/></g><g transform="translate(2578 0)"><path d="M150 772Q186 772 209.0 752.0Q232 732 232 699Q232 666 209.0 646.0Q186 626 150 626Q114 626 91.0 646.0Q68 666 68 699Q68 732 91.0 752.0Q114 772 150 772ZM220 528V93Q220 51 235.5 36.0Q251 21 288 21V0Q270 1 233.0 2.5Q196 4 158 4Q121 4 83.0 2.5Q45 1 26 0V21Q63 21 78.5 36.0Q94 51 94 93V407Q94 453 79.5 474.5Q65 496 26 496V517Q58 514 88 514Q125 514 158.5 517.5Q192 521 220 528Z" fill="#FFFFFF"/></g><circle cx="2992.0" cy="86.0" r="86.0" fill="#2B3EE5"/></g></g></svg>