<svg xmlns="http://www.w3.org/2000/svg" viewBox="0 0 512 512" width="512" height="512"><rect width="512" height="512" fill="#1A1E2E"/><g transform="translate(109.17 406.00) scale(0.38314 -0.38314)"><path d="M354 531Q432 531 484.5 465.5Q537 400 537 267Q537 168 506.0 105.5Q475 43 423.0 14.5Q371 -14 310 -14Q267 -14 227.5 4.5Q188 23 164 63H181Q201 35 229.5 21.5Q258 8 287 8Q346 8 375.0 69.5Q404 131 404 258Q404 342 392.5 393.5Q381 445 359.0 468.5Q337 492 304 492Q265 492 232.5 459.0Q200 426 195 365L188 393Q204 459 248.5 495.0Q293 531 354 531ZM199 783V30Q178 29 156.0 22.5Q134 16 115.0 6.5Q96 -3 82 -16L66 -8Q71 6 72.0 20.0Q73 34 73 49V663Q73 708 58.5 729.5Q44 751 5 751V772Q37 769 67 769Q105 769 138.0 772.5Q171 776 199 783Z" fill="#FFFFFF"/></g><circle cx="364.92" cy="370.00" r="36.0" fill="#2B3EE5"/></svg>